<svg width="24" height="20" viewBox="0 0 24 20" fill="none" xmlns="http://www.w3.org/2000/svg">
<g clip-path="url(#clip0_913_8658)">
<g clip-path="url(#clip1_913_8658)">
<path d="M3 6C3 7.1 3.9 8 5 8C6.1 8 7 7.1 7 6C7 4.9 6.1 4 5 4C3.9 4 3 4.9 3 6ZM17 6C17 7.1 17.9 8 19 8C20.1 8 21 7.1 21 6C21 4.9 20.1 4 19 4C17.9 4 17 4.9 17 6ZM10 6C10 7.1 10.9 8 12 8C13.1 8 14 7.1 14 6C14 4.9 13.1 4 12 4C10.9 4 10 4.9 10 6Z" fill="#2B2C30"/>
</g>
<g clip-path="url(#clip2_913_8658)">
<path d="M3 14C3 15.1 3.9 16 5 16C6.1 16 7 15.1 7 14C7 12.9 6.1 12 5 12C3.9 12 3 12.9 3 14ZM17 14C17 15.1 17.9 16 19 16C20.1 16 21 15.1 21 14C21 12.9 20.1 12 19 12C17.9 12 17 12.9 17 14ZM10 14C10 15.1 10.9 16 12 16C13.1 16 14 15.1 14 14C14 12.9 13.1 12 12 12C10.9 12 10 12.9 10 14Z" fill="#2B2C30"/>
</g>
</g>
<defs>
<clipPath id="clip0_913_8658">
<rect width="24" height="20" fill="white"/>
</clipPath>
<clipPath id="clip1_913_8658">
<rect width="24" height="24" fill="white" transform="translate(0 18) rotate(-90)"/>
</clipPath>
<clipPath id="clip2_913_8658">
<rect width="24" height="24" fill="white" transform="translate(0 26) rotate(-90)"/>
</clipPath>
</defs>
</svg>
